<mxfile host="app.diagrams.net" modified="2024-01-09T10:30:48.635Z" agent="Mozilla/5.0 (Windows NT 10.0; Win64; x64) AppleWebKit/537.36 (KHTML, like Gecko) Chrome/118.0.0.0 YaBrowser/23.11.0.0 Safari/537.36" etag="3wtKjuX7W9lZ4SnHnrPt" version="22.1.17" type="device">
  <diagram name="Страница — 1" id="IdBlFfznTm7Aj37YdjJr">
    <mxGraphModel dx="1002" dy="543" grid="1" gridSize="10" guides="1" tooltips="1" connect="1" arrows="1" fold="1" page="1" pageScale="1" pageWidth="827" pageHeight="1169" math="0" shadow="0">
      <root>
        <mxCell id="0" />
        <mxCell id="1" parent="0" />
        <mxCell id="g0HlQe8YYWBu7-YHdnrG-1" value="" style="rounded=0;whiteSpace=wrap;html=1;" vertex="1" parent="1">
          <mxGeometry x="50" y="40" width="160" height="250" as="geometry" />
        </mxCell>
        <mxCell id="g0HlQe8YYWBu7-YHdnrG-2" value="" style="endArrow=none;html=1;rounded=0;exitX=-0.005;exitY=0.123;exitDx=0;exitDy=0;entryX=1;entryY=0.126;entryDx=0;entryDy=0;exitPerimeter=0;entryPerimeter=0;" edge="1" parent="1" source="g0HlQe8YYWBu7-YHdnrG-1" target="g0HlQe8YYWBu7-YHdnrG-1">
          <mxGeometry width="50" height="50" relative="1" as="geometry">
            <mxPoint x="390" y="310" as="sourcePoint" />
            <mxPoint x="440" y="260" as="targetPoint" />
          </mxGeometry>
        </mxCell>
        <mxCell id="g0HlQe8YYWBu7-YHdnrG-4" value="ВРАЧИ" style="text;strokeColor=none;align=center;fillColor=none;html=1;verticalAlign=middle;whiteSpace=wrap;rounded=0;" vertex="1" parent="1">
          <mxGeometry x="100" y="40" width="60" height="30" as="geometry" />
        </mxCell>
        <mxCell id="g0HlQe8YYWBu7-YHdnrG-5" value="" style="endArrow=none;html=1;rounded=0;exitX=0;exitY=0.25;exitDx=0;exitDy=0;entryX=1;entryY=0.25;entryDx=0;entryDy=0;" edge="1" parent="1" source="g0HlQe8YYWBu7-YHdnrG-1" target="g0HlQe8YYWBu7-YHdnrG-1">
          <mxGeometry width="50" height="50" relative="1" as="geometry">
            <mxPoint x="390" y="310" as="sourcePoint" />
            <mxPoint x="440" y="260" as="targetPoint" />
          </mxGeometry>
        </mxCell>
        <mxCell id="g0HlQe8YYWBu7-YHdnrG-6" value="- ФИО врача" style="text;strokeColor=none;align=center;fillColor=none;html=1;verticalAlign=middle;whiteSpace=wrap;rounded=0;" vertex="1" parent="1">
          <mxGeometry x="50" y="70" width="90" height="30" as="geometry" />
        </mxCell>
        <mxCell id="g0HlQe8YYWBu7-YHdnrG-7" value="- Специальность" style="text;strokeColor=none;align=center;fillColor=none;html=1;verticalAlign=middle;whiteSpace=wrap;rounded=0;" vertex="1" parent="1">
          <mxGeometry x="50" y="100" width="110" height="30" as="geometry" />
        </mxCell>
        <mxCell id="g0HlQe8YYWBu7-YHdnrG-8" value="- Стоимость приема" style="text;strokeColor=none;align=center;fillColor=none;html=1;verticalAlign=middle;whiteSpace=wrap;rounded=0;" vertex="1" parent="1">
          <mxGeometry x="50" y="130" width="130" height="30" as="geometry" />
        </mxCell>
        <mxCell id="g0HlQe8YYWBu7-YHdnrG-9" value="- Процент отчисления" style="text;strokeColor=none;align=center;fillColor=none;html=1;verticalAlign=middle;whiteSpace=wrap;rounded=0;" vertex="1" parent="1">
          <mxGeometry x="50" y="160" width="140" height="30" as="geometry" />
        </mxCell>
        <mxCell id="g0HlQe8YYWBu7-YHdnrG-10" value="" style="rounded=0;whiteSpace=wrap;html=1;" vertex="1" parent="1">
          <mxGeometry x="330" y="40" width="160" height="250" as="geometry" />
        </mxCell>
        <mxCell id="g0HlQe8YYWBu7-YHdnrG-11" value="" style="endArrow=none;html=1;rounded=0;exitX=-0.005;exitY=0.123;exitDx=0;exitDy=0;entryX=1;entryY=0.126;entryDx=0;entryDy=0;exitPerimeter=0;entryPerimeter=0;" edge="1" parent="1" source="g0HlQe8YYWBu7-YHdnrG-10" target="g0HlQe8YYWBu7-YHdnrG-10">
          <mxGeometry width="50" height="50" relative="1" as="geometry">
            <mxPoint x="840.8" y="310" as="sourcePoint" />
            <mxPoint x="890.8" y="260" as="targetPoint" />
          </mxGeometry>
        </mxCell>
        <mxCell id="g0HlQe8YYWBu7-YHdnrG-12" value="ПАЦИЕНТЫ" style="text;strokeColor=none;align=center;fillColor=none;html=1;verticalAlign=middle;whiteSpace=wrap;rounded=0;" vertex="1" parent="1">
          <mxGeometry x="379.99999999999994" y="40" width="60" height="30" as="geometry" />
        </mxCell>
        <mxCell id="g0HlQe8YYWBu7-YHdnrG-13" value="" style="endArrow=none;html=1;rounded=0;exitX=0;exitY=0.25;exitDx=0;exitDy=0;entryX=1;entryY=0.25;entryDx=0;entryDy=0;" edge="1" parent="1" source="g0HlQe8YYWBu7-YHdnrG-10" target="g0HlQe8YYWBu7-YHdnrG-10">
          <mxGeometry width="50" height="50" relative="1" as="geometry">
            <mxPoint x="840.8" y="310" as="sourcePoint" />
            <mxPoint x="890.8" y="260" as="targetPoint" />
          </mxGeometry>
        </mxCell>
        <mxCell id="g0HlQe8YYWBu7-YHdnrG-14" value="- ФИО пациента" style="text;strokeColor=none;align=center;fillColor=none;html=1;verticalAlign=middle;whiteSpace=wrap;rounded=0;" vertex="1" parent="1">
          <mxGeometry x="330" y="70" width="110" height="30" as="geometry" />
        </mxCell>
        <mxCell id="g0HlQe8YYWBu7-YHdnrG-15" value="- Специальность" style="text;strokeColor=none;align=center;fillColor=none;html=1;verticalAlign=middle;whiteSpace=wrap;rounded=0;" vertex="1" parent="1">
          <mxGeometry x="330" y="100" width="110" height="30" as="geometry" />
        </mxCell>
        <mxCell id="g0HlQe8YYWBu7-YHdnrG-16" value="- Дата рождения" style="text;strokeColor=none;align=center;fillColor=none;html=1;verticalAlign=middle;whiteSpace=wrap;rounded=0;" vertex="1" parent="1">
          <mxGeometry x="330" y="130" width="110" height="30" as="geometry" />
        </mxCell>
        <mxCell id="g0HlQe8YYWBu7-YHdnrG-17" value="- Адрес проживания" style="text;strokeColor=none;align=center;fillColor=none;html=1;verticalAlign=middle;whiteSpace=wrap;rounded=0;" vertex="1" parent="1">
          <mxGeometry x="330" y="160" width="130" height="30" as="geometry" />
        </mxCell>
        <mxCell id="g0HlQe8YYWBu7-YHdnrG-18" value="" style="rounded=0;whiteSpace=wrap;html=1;" vertex="1" parent="1">
          <mxGeometry x="50.80000000000001" y="335" width="160" height="250" as="geometry" />
        </mxCell>
        <mxCell id="g0HlQe8YYWBu7-YHdnrG-19" value="" style="endArrow=none;html=1;rounded=0;exitX=-0.005;exitY=0.123;exitDx=0;exitDy=0;entryX=1;entryY=0.126;entryDx=0;entryDy=0;exitPerimeter=0;entryPerimeter=0;" edge="1" parent="1" source="g0HlQe8YYWBu7-YHdnrG-18" target="g0HlQe8YYWBu7-YHdnrG-18">
          <mxGeometry width="50" height="50" relative="1" as="geometry">
            <mxPoint x="561.5999999999999" y="605" as="sourcePoint" />
            <mxPoint x="611.5999999999999" y="555" as="targetPoint" />
          </mxGeometry>
        </mxCell>
        <mxCell id="g0HlQe8YYWBu7-YHdnrG-20" value="ДАТА ПРИЕМА" style="text;strokeColor=none;align=center;fillColor=none;html=1;verticalAlign=middle;whiteSpace=wrap;rounded=0;" vertex="1" parent="1">
          <mxGeometry x="60" y="335" width="140" height="30" as="geometry" />
        </mxCell>
        <mxCell id="g0HlQe8YYWBu7-YHdnrG-21" value="" style="endArrow=none;html=1;rounded=0;exitX=0;exitY=0.25;exitDx=0;exitDy=0;entryX=1;entryY=0.25;entryDx=0;entryDy=0;" edge="1" parent="1" source="g0HlQe8YYWBu7-YHdnrG-18" target="g0HlQe8YYWBu7-YHdnrG-18">
          <mxGeometry width="50" height="50" relative="1" as="geometry">
            <mxPoint x="561.5999999999999" y="605" as="sourcePoint" />
            <mxPoint x="611.5999999999999" y="555" as="targetPoint" />
          </mxGeometry>
        </mxCell>
        <mxCell id="g0HlQe8YYWBu7-YHdnrG-22" value="- Дата приема" style="text;strokeColor=none;align=center;fillColor=none;html=1;verticalAlign=middle;whiteSpace=wrap;rounded=0;" vertex="1" parent="1">
          <mxGeometry x="50.8" y="365" width="99.2" height="30" as="geometry" />
        </mxCell>
        <mxCell id="g0HlQe8YYWBu7-YHdnrG-23" value="- ФИО пациента" style="text;strokeColor=none;align=center;fillColor=none;html=1;verticalAlign=middle;whiteSpace=wrap;rounded=0;" vertex="1" parent="1">
          <mxGeometry x="50.80000000000001" y="395" width="110" height="30" as="geometry" />
        </mxCell>
        <mxCell id="g0HlQe8YYWBu7-YHdnrG-24" value="- ФИО врача" style="text;strokeColor=none;align=center;fillColor=none;html=1;verticalAlign=middle;whiteSpace=wrap;rounded=0;" vertex="1" parent="1">
          <mxGeometry x="50.8" y="425" width="89.2" height="30" as="geometry" />
        </mxCell>
        <mxCell id="g0HlQe8YYWBu7-YHdnrG-26" value="" style="endArrow=none;html=1;rounded=0;entryX=0;entryY=0.5;entryDx=0;entryDy=0;" edge="1" parent="1" target="g0HlQe8YYWBu7-YHdnrG-15">
          <mxGeometry width="50" height="50" relative="1" as="geometry">
            <mxPoint x="210" y="115" as="sourcePoint" />
            <mxPoint x="440" y="460" as="targetPoint" />
          </mxGeometry>
        </mxCell>
        <mxCell id="g0HlQe8YYWBu7-YHdnrG-27" value="" style="endArrow=none;html=1;rounded=0;entryX=0;entryY=0.5;entryDx=0;entryDy=0;exitX=1.01;exitY=0.332;exitDx=0;exitDy=0;exitPerimeter=0;" edge="1" parent="1" source="g0HlQe8YYWBu7-YHdnrG-18" target="g0HlQe8YYWBu7-YHdnrG-14">
          <mxGeometry width="50" height="50" relative="1" as="geometry">
            <mxPoint x="390" y="310" as="sourcePoint" />
            <mxPoint x="440" y="260" as="targetPoint" />
          </mxGeometry>
        </mxCell>
      </root>
    </mxGraphModel>
  </diagram>
</mxfile>
